<svg xmlns="http://www.w3.org/2000/svg" viewBox="0 0 289.4 491">
  <title>background_texture</title>
  <g id="Layer_2" data-name="Layer 2">
    <g id="Layer_1-2" data-name="Layer 1">
      <g opacity="0.1">
        <rect width="12.6" height="12.58" fill="#f45ea6"/>
        <rect x="25.2" width="12.6" height="12.58" fill="#f45ea6"/>
        <rect y="25.2" width="12.6" height="12.58" fill="#f45ea6"/>
        <rect x="25.2" y="25.2" width="12.6" height="12.58" fill="#f45ea6"/>
        <rect x="50.3" width="12.6" height="12.58" fill="#f45ea6"/>
        <rect x="75.5" width="12.6" height="12.58" fill="#f45ea6"/>
        <rect x="50.3" y="25.2" width="12.6" height="12.58" fill="#f45ea6"/>
        <rect x="75.5" y="25.2" width="12.6" height="12.58" fill="#f45ea6"/>
        <rect x="100.6" width="12.6" height="12.58" fill="#f45ea6"/>
        <rect x="125.8" width="12.6" height="12.58" fill="#f45ea6"/>
        <rect x="100.6" y="25.2" width="12.6" height="12.58" fill="#f45ea6"/>
        <rect x="125.8" y="25.2" width="12.6" height="12.58" fill="#f45ea6"/>
        <rect y="50.3" width="12.6" height="12.58" fill="#f45ea6"/>
        <rect x="25.2" y="50.3" width="12.6" height="12.58" fill="#f45ea6"/>
        <rect y="75.5" width="12.6" height="12.58" fill="#f45ea6"/>
        <rect x="25.2" y="75.5" width="12.6" height="12.58" fill="#f45ea6"/>
        <rect x="50.3" y="50.3" width="12.6" height="12.58" fill="#f45ea6"/>
        <rect x="75.5" y="50.3" width="12.6" height="12.58" fill="#f45ea6"/>
        <rect x="50.3" y="75.5" width="12.6" height="12.58" fill="#f45ea6"/>
        <rect x="75.5" y="75.5" width="12.6" height="12.58" fill="#f45ea6"/>
        <rect x="100.6" y="50.3" width="12.6" height="12.58" fill="#f45ea6"/>
        <rect x="125.8" y="50.3" width="12.6" height="12.58" fill="#f45ea6"/>
        <rect x="100.6" y="75.5" width="12.6" height="12.58" fill="#f45ea6"/>
        <rect x="125.8" y="75.5" width="12.6" height="12.58" fill="#f45ea6"/>
        <rect y="100.6" width="12.6" height="12.58" fill="#f45ea6"/>
        <rect x="25.2" y="100.6" width="12.6" height="12.58" fill="#f45ea6"/>
        <rect y="125.8" width="12.6" height="12.58" fill="#f45ea6"/>
        <rect x="25.2" y="125.8" width="12.6" height="12.58" fill="#f45ea6"/>
        <rect x="50.3" y="100.6" width="12.6" height="12.58" fill="#f45ea6"/>
        <rect x="75.5" y="100.6" width="12.6" height="12.58" fill="#f45ea6"/>
        <rect x="50.3" y="125.8" width="12.6" height="12.58" fill="#f45ea6"/>
        <rect x="75.5" y="125.8" width="12.6" height="12.58" fill="#f45ea6"/>
        <rect x="100.6" y="100.6" width="12.6" height="12.58" fill="#f45ea6"/>
        <rect x="125.8" y="100.6" width="12.6" height="12.58" fill="#f45ea6"/>
        <rect x="100.6" y="125.8" width="12.6" height="12.58" fill="#f45ea6"/>
        <rect x="125.8" y="125.8" width="12.6" height="12.58" fill="#f45ea6"/>
        <rect y="151" width="12.6" height="12.58" fill="#f45ea6"/>
        <rect x="25.2" y="151" width="12.6" height="12.58" fill="#f45ea6"/>
        <rect y="176.1" width="12.6" height="12.58" fill="#f45ea6"/>
        <rect x="25.2" y="176.1" width="12.6" height="12.58" fill="#f45ea6"/>
        <rect x="50.3" y="151" width="12.6" height="12.58" fill="#f45ea6"/>
        <rect x="75.5" y="151" width="12.6" height="12.58" fill="#f45ea6"/>
        <rect x="50.3" y="176.1" width="12.6" height="12.58" fill="#f45ea6"/>
        <rect x="75.5" y="176.1" width="12.6" height="12.58" fill="#f45ea6"/>
        <rect x="100.6" y="151" width="12.6" height="12.58" fill="#f45ea6"/>
        <rect x="125.8" y="151" width="12.6" height="12.58" fill="#f45ea6"/>
        <rect x="100.6" y="176.1" width="12.6" height="12.58" fill="#f45ea6"/>
        <rect x="125.8" y="176.1" width="12.6" height="12.58" fill="#f45ea6"/>
        <rect x="151" width="12.6" height="12.58" fill="#f45ea6"/>
        <rect x="176.1" width="12.6" height="12.58" fill="#f45ea6"/>
        <rect x="151" y="25.2" width="12.6" height="12.58" fill="#f45ea6"/>
        <rect x="176.1" y="25.2" width="12.6" height="12.58" fill="#f45ea6"/>
        <rect x="201.3" width="12.6" height="12.58" fill="#f45ea6"/>
        <rect x="226.5" width="12.6" height="12.58" fill="#f45ea6"/>
        <rect x="201.3" y="25.2" width="12.6" height="12.58" fill="#f45ea6"/>
        <rect x="226.5" y="25.2" width="12.6" height="12.58" fill="#f45ea6"/>
        <rect x="251.6" width="12.6" height="12.58" fill="#f45ea6"/>
        <rect x="276.8" width="12.6" height="12.58" fill="#f45ea6"/>
        <rect x="251.6" y="25.2" width="12.6" height="12.58" fill="#f45ea6"/>
        <rect x="276.8" y="25.2" width="12.6" height="12.58" fill="#f45ea6"/>
        <rect x="151" y="50.3" width="12.6" height="12.58" fill="#f45ea6"/>
        <rect x="176.1" y="50.3" width="12.6" height="12.58" fill="#f45ea6"/>
        <rect x="151" y="75.5" width="12.6" height="12.58" fill="#f45ea6"/>
        <rect x="176.1" y="75.5" width="12.6" height="12.58" fill="#f45ea6"/>
        <rect x="201.3" y="50.3" width="12.6" height="12.58" fill="#f45ea6"/>
        <rect x="226.5" y="50.3" width="12.6" height="12.58" fill="#f45ea6"/>
        <rect x="201.3" y="75.5" width="12.6" height="12.58" fill="#f45ea6"/>
        <rect x="226.5" y="75.5" width="12.6" height="12.58" fill="#f45ea6"/>
        <rect x="251.6" y="50.3" width="12.6" height="12.58" fill="#f45ea6"/>
        <rect x="276.8" y="50.3" width="12.6" height="12.58" fill="#f45ea6"/>
        <rect x="251.6" y="75.5" width="12.6" height="12.58" fill="#f45ea6"/>
        <rect x="276.8" y="75.5" width="12.6" height="12.58" fill="#f45ea6"/>
        <rect x="151" y="100.6" width="12.6" height="12.58" fill="#f45ea6"/>
        <rect x="176.1" y="100.6" width="12.6" height="12.58" fill="#f45ea6"/>
        <rect x="151" y="125.8" width="12.6" height="12.58" fill="#f45ea6"/>
        <rect x="176.1" y="125.8" width="12.6" height="12.58" fill="#f45ea6"/>
        <rect x="201.3" y="100.6" width="12.6" height="12.58" fill="#f45ea6"/>
        <rect x="226.5" y="100.6" width="12.6" height="12.58" fill="#f45ea6"/>
        <rect x="201.3" y="125.8" width="12.6" height="12.58" fill="#f45ea6"/>
        <rect x="226.5" y="125.8" width="12.6" height="12.58" fill="#f45ea6"/>
        <rect x="251.6" y="100.6" width="12.6" height="12.58" fill="#f45ea6"/>
        <rect x="276.8" y="100.6" width="12.6" height="12.58" fill="#f45ea6"/>
        <rect x="251.6" y="125.8" width="12.6" height="12.58" fill="#f45ea6"/>
        <rect x="276.8" y="125.8" width="12.6" height="12.58" fill="#f45ea6"/>
        <rect x="151" y="151" width="12.6" height="12.58" fill="#f45ea6"/>
        <rect x="176.1" y="151" width="12.6" height="12.58" fill="#f45ea6"/>
        <rect x="151" y="176.1" width="12.6" height="12.58" fill="#f45ea6"/>
        <rect x="176.1" y="176.1" width="12.6" height="12.58" fill="#f45ea6"/>
        <rect x="201.3" y="151" width="12.6" height="12.58" fill="#f45ea6"/>
        <rect x="226.5" y="151" width="12.6" height="12.58" fill="#f45ea6"/>
        <rect x="201.3" y="176.1" width="12.6" height="12.58" fill="#f45ea6"/>
        <rect x="226.5" y="176.1" width="12.6" height="12.58" fill="#f45ea6"/>
        <rect x="251.6" y="151" width="12.6" height="12.58" fill="#f45ea6"/>
        <rect x="276.8" y="151" width="12.6" height="12.58" fill="#f45ea6"/>
        <rect x="251.6" y="176.1" width="12.6" height="12.58" fill="#f45ea6"/>
        <rect x="276.8" y="176.1" width="12.6" height="12.58" fill="#f45ea6"/>
        <rect y="201.3" width="12.6" height="12.58" fill="#f45ea6"/>
        <rect x="25.2" y="201.3" width="12.6" height="12.58" fill="#f45ea6"/>
        <rect y="226.5" width="12.6" height="12.58" fill="#f45ea6"/>
        <rect x="25.2" y="226.5" width="12.6" height="12.58" fill="#f45ea6"/>
        <rect x="50.3" y="201.3" width="12.6" height="12.58" fill="#f45ea6"/>
        <rect x="75.5" y="201.3" width="12.6" height="12.58" fill="#f45ea6"/>
        <rect x="50.3" y="226.5" width="12.6" height="12.58" fill="#f45ea6"/>
        <rect x="75.5" y="226.5" width="12.6" height="12.58" fill="#f45ea6"/>
        <rect x="100.6" y="201.3" width="12.6" height="12.58" fill="#f45ea6"/>
        <rect x="125.8" y="201.3" width="12.6" height="12.58" fill="#f45ea6"/>
        <rect x="100.6" y="226.5" width="12.6" height="12.58" fill="#f45ea6"/>
        <rect x="125.8" y="226.5" width="12.6" height="12.58" fill="#f45ea6"/>
        <rect y="251.6" width="12.6" height="12.58" fill="#f45ea6"/>
        <rect x="25.2" y="251.6" width="12.6" height="12.58" fill="#f45ea6"/>
        <rect y="276.8" width="12.6" height="12.58" fill="#f45ea6"/>
        <rect x="25.2" y="276.8" width="12.6" height="12.58" fill="#f45ea6"/>
        <rect x="50.3" y="251.6" width="12.6" height="12.58" fill="#f45ea6"/>
        <rect x="75.5" y="251.6" width="12.6" height="12.58" fill="#f45ea6"/>
        <rect x="50.3" y="276.8" width="12.6" height="12.58" fill="#f45ea6"/>
        <rect x="75.5" y="276.8" width="12.6" height="12.58" fill="#f45ea6"/>
        <rect x="100.6" y="251.6" width="12.6" height="12.58" fill="#f45ea6"/>
        <rect x="125.8" y="251.6" width="12.6" height="12.58" fill="#f45ea6"/>
        <rect x="100.6" y="276.8" width="12.6" height="12.58" fill="#f45ea6"/>
        <rect x="125.8" y="276.8" width="12.6" height="12.58" fill="#f45ea6"/>
        <rect y="301.9" width="12.6" height="12.58" fill="#f45ea6"/>
        <rect x="25.2" y="301.9" width="12.6" height="12.58" fill="#f45ea6"/>
        <rect y="327.1" width="12.6" height="12.58" fill="#f45ea6"/>
        <rect x="25.2" y="327.1" width="12.6" height="12.58" fill="#f45ea6"/>
        <rect x="50.3" y="301.9" width="12.6" height="12.58" fill="#f45ea6"/>
        <rect x="75.5" y="301.9" width="12.6" height="12.58" fill="#f45ea6"/>
        <rect x="50.3" y="327.1" width="12.6" height="12.58" fill="#f45ea6"/>
        <rect x="75.5" y="327.1" width="12.6" height="12.58" fill="#f45ea6"/>
        <rect x="100.6" y="301.9" width="12.6" height="12.58" fill="#f45ea6"/>
        <rect x="125.8" y="301.9" width="12.6" height="12.58" fill="#f45ea6"/>
        <rect x="100.6" y="327.1" width="12.6" height="12.58" fill="#f45ea6"/>
        <rect x="125.8" y="327.1" width="12.6" height="12.58" fill="#f45ea6"/>
        <rect y="352.3" width="12.6" height="12.58" fill="#f45ea6"/>
        <rect x="25.2" y="352.3" width="12.6" height="12.58" fill="#f45ea6"/>
        <rect y="377.4" width="12.6" height="12.58" fill="#f45ea6"/>
        <rect x="25.2" y="377.4" width="12.6" height="12.58" fill="#f45ea6"/>
        <rect x="50.3" y="352.3" width="12.6" height="12.58" fill="#f45ea6"/>
        <rect x="75.5" y="352.3" width="12.6" height="12.58" fill="#f45ea6"/>
        <rect x="50.3" y="377.4" width="12.6" height="12.58" fill="#f45ea6"/>
        <rect x="75.5" y="377.4" width="12.6" height="12.58" fill="#f45ea6"/>
        <rect x="100.6" y="352.3" width="12.6" height="12.58" fill="#f45ea6"/>
        <rect x="125.8" y="352.3" width="12.6" height="12.58" fill="#f45ea6"/>
        <rect x="100.6" y="377.4" width="12.6" height="12.58" fill="#f45ea6"/>
        <rect x="125.8" y="377.4" width="12.6" height="12.58" fill="#f45ea6"/>
        <rect x="151" y="201.3" width="12.6" height="12.58" fill="#f45ea6"/>
        <rect x="176.1" y="201.3" width="12.6" height="12.58" fill="#f45ea6"/>
        <rect x="151" y="226.5" width="12.6" height="12.58" fill="#f45ea6"/>
        <rect x="176.1" y="226.5" width="12.6" height="12.58" fill="#f45ea6"/>
        <rect x="201.3" y="201.3" width="12.6" height="12.58" fill="#f45ea6"/>
        <rect x="226.5" y="201.3" width="12.6" height="12.58" fill="#f45ea6"/>
        <rect x="201.3" y="226.5" width="12.6" height="12.58" fill="#f45ea6"/>
        <rect x="226.5" y="226.5" width="12.6" height="12.58" fill="#f45ea6"/>
        <rect x="251.6" y="201.3" width="12.6" height="12.58" fill="#f45ea6"/>
        <rect x="276.8" y="201.3" width="12.6" height="12.58" fill="#f45ea6"/>
        <rect x="251.6" y="226.5" width="12.6" height="12.58" fill="#f45ea6"/>
        <rect x="276.8" y="226.5" width="12.6" height="12.58" fill="#f45ea6"/>
        <rect x="151" y="251.6" width="12.6" height="12.58" fill="#f45ea6"/>
        <rect x="176.1" y="251.6" width="12.6" height="12.58" fill="#f45ea6"/>
        <rect x="151" y="276.8" width="12.6" height="12.58" fill="#f45ea6"/>
        <rect x="176.1" y="276.8" width="12.6" height="12.58" fill="#f45ea6"/>
        <rect x="201.3" y="251.6" width="12.6" height="12.58" fill="#f45ea6"/>
        <rect x="226.5" y="251.6" width="12.6" height="12.58" fill="#f45ea6"/>
        <rect x="201.3" y="276.8" width="12.6" height="12.58" fill="#f45ea6"/>
        <rect x="226.5" y="276.8" width="12.6" height="12.58" fill="#f45ea6"/>
        <rect x="251.6" y="251.6" width="12.6" height="12.58" fill="#f45ea6"/>
        <rect x="276.8" y="251.6" width="12.6" height="12.58" fill="#f45ea6"/>
        <rect x="251.6" y="276.8" width="12.6" height="12.58" fill="#f45ea6"/>
        <rect x="276.8" y="276.8" width="12.6" height="12.58" fill="#f45ea6"/>
        <rect x="151" y="301.9" width="12.6" height="12.58" fill="#f45ea6"/>
        <rect x="176.1" y="301.9" width="12.6" height="12.58" fill="#f45ea6"/>
        <rect x="151" y="327.1" width="12.6" height="12.58" fill="#f45ea6"/>
        <rect x="176.1" y="327.1" width="12.6" height="12.58" fill="#f45ea6"/>
        <rect x="201.3" y="301.9" width="12.6" height="12.58" fill="#f45ea6"/>
        <rect x="226.5" y="301.9" width="12.6" height="12.58" fill="#f45ea6"/>
        <rect x="201.3" y="327.1" width="12.6" height="12.58" fill="#f45ea6"/>
        <rect x="226.5" y="327.1" width="12.6" height="12.58" fill="#f45ea6"/>
        <rect x="251.6" y="301.9" width="12.6" height="12.58" fill="#f45ea6"/>
        <rect x="276.8" y="301.9" width="12.6" height="12.58" fill="#f45ea6"/>
        <rect x="251.6" y="327.1" width="12.6" height="12.58" fill="#f45ea6"/>
        <rect x="276.8" y="327.1" width="12.6" height="12.58" fill="#f45ea6"/>
        <rect x="151" y="352.3" width="12.6" height="12.58" fill="#f45ea6"/>
        <rect x="176.1" y="352.3" width="12.6" height="12.58" fill="#f45ea6"/>
        <rect x="151" y="377.4" width="12.6" height="12.58" fill="#f45ea6"/>
        <rect x="176.1" y="377.4" width="12.6" height="12.58" fill="#f45ea6"/>
        <rect x="201.3" y="352.3" width="12.6" height="12.58" fill="#f45ea6"/>
        <rect x="226.5" y="352.3" width="12.6" height="12.58" fill="#f45ea6"/>
        <rect x="201.3" y="377.4" width="12.6" height="12.58" fill="#f45ea6"/>
        <rect x="226.5" y="377.4" width="12.6" height="12.58" fill="#f45ea6"/>
        <rect x="251.6" y="352.3" width="12.6" height="12.58" fill="#f45ea6"/>
        <rect x="276.8" y="352.3" width="12.6" height="12.58" fill="#f45ea6"/>
        <rect x="251.6" y="377.4" width="12.6" height="12.58" fill="#f45ea6"/>
        <rect x="276.8" y="377.4" width="12.6" height="12.58" fill="#f45ea6"/>
        <rect y="403.3" width="12.6" height="12.58" fill="#f45ea6"/>
        <rect x="25.2" y="403.3" width="12.6" height="12.58" fill="#f45ea6"/>
        <rect y="428.4" width="12.6" height="12.58" fill="#f45ea6"/>
        <rect x="25.2" y="428.4" width="12.6" height="12.58" fill="#f45ea6"/>
        <rect x="50.3" y="403.3" width="12.6" height="12.58" fill="#f45ea6"/>
        <rect x="75.5" y="403.3" width="12.6" height="12.58" fill="#f45ea6"/>
        <rect x="50.3" y="428.4" width="12.6" height="12.58" fill="#f45ea6"/>
        <rect x="75.5" y="428.4" width="12.6" height="12.58" fill="#f45ea6"/>
        <rect x="100.6" y="403.3" width="12.6" height="12.58" fill="#f45ea6"/>
        <rect x="125.8" y="403.3" width="12.6" height="12.58" fill="#f45ea6"/>
        <rect x="100.6" y="428.4" width="12.6" height="12.58" fill="#f45ea6"/>
        <rect x="125.8" y="428.4" width="12.6" height="12.58" fill="#f45ea6"/>
        <rect x="151" y="403.3" width="12.6" height="12.58" fill="#f45ea6"/>
        <rect x="176.1" y="403.3" width="12.6" height="12.58" fill="#f45ea6"/>
        <rect x="151" y="428.4" width="12.6" height="12.58" fill="#f45ea6"/>
        <rect x="176.1" y="428.4" width="12.6" height="12.58" fill="#f45ea6"/>
        <rect x="201.3" y="403.3" width="12.6" height="12.58" fill="#f45ea6"/>
        <rect x="226.5" y="403.3" width="12.6" height="12.58" fill="#f45ea6"/>
        <rect x="201.3" y="428.4" width="12.6" height="12.58" fill="#f45ea6"/>
        <rect x="226.5" y="428.4" width="12.6" height="12.58" fill="#f45ea6"/>
        <rect x="251.6" y="403.3" width="12.6" height="12.58" fill="#f45ea6"/>
        <rect x="276.8" y="403.3" width="12.6" height="12.58" fill="#f45ea6"/>
        <rect x="251.6" y="428.4" width="12.6" height="12.58" fill="#f45ea6"/>
        <rect x="276.8" y="428.4" width="12.6" height="12.58" fill="#f45ea6"/>
        <rect y="453.3" width="12.6" height="12.58" fill="#f45ea6"/>
        <rect x="25.2" y="453.3" width="12.6" height="12.58" fill="#f45ea6"/>
        <rect y="478.4" width="12.6" height="12.58" fill="#f45ea6"/>
        <rect x="25.2" y="478.4" width="12.6" height="12.58" fill="#f45ea6"/>
        <rect x="50.3" y="453.3" width="12.6" height="12.58" fill="#f45ea6"/>
        <rect x="75.5" y="453.3" width="12.6" height="12.58" fill="#f45ea6"/>
        <rect x="50.3" y="478.4" width="12.6" height="12.58" fill="#f45ea6"/>
        <rect x="75.5" y="478.4" width="12.6" height="12.58" fill="#f45ea6"/>
        <rect x="100.6" y="453.3" width="12.6" height="12.58" fill="#f45ea6"/>
        <rect x="125.8" y="453.3" width="12.6" height="12.58" fill="#f45ea6"/>
        <rect x="100.6" y="478.4" width="12.6" height="12.58" fill="#f45ea6"/>
        <rect x="125.8" y="478.4" width="12.6" height="12.58" fill="#f45ea6"/>
        <rect x="151" y="453.3" width="12.6" height="12.58" fill="#f45ea6"/>
        <rect x="176.1" y="453.3" width="12.6" height="12.58" fill="#f45ea6"/>
        <rect x="151" y="478.4" width="12.6" height="12.58" fill="#f45ea6"/>
        <rect x="176.1" y="478.4" width="12.6" height="12.58" fill="#f45ea6"/>
        <rect x="201.3" y="453.3" width="12.6" height="12.58" fill="#f45ea6"/>
        <rect x="226.5" y="453.3" width="12.6" height="12.58" fill="#f45ea6"/>
        <rect x="201.3" y="478.4" width="12.6" height="12.58" fill="#f45ea6"/>
        <rect x="226.5" y="478.4" width="12.6" height="12.58" fill="#f45ea6"/>
        <rect x="251.6" y="453.3" width="12.6" height="12.58" fill="#f45ea6"/>
        <rect x="276.8" y="453.3" width="12.6" height="12.58" fill="#f45ea6"/>
        <rect x="251.6" y="478.4" width="12.6" height="12.58" fill="#f45ea6"/>
        <rect x="276.8" y="478.4" width="12.6" height="12.58" fill="#f45ea6"/>
      </g>
    </g>
  </g>
</svg>
