<svg xmlns="http://www.w3.org/2000/svg" viewBox="0 0 163.7 115.7">
  <title>logo</title>
  <g id="Layer_2" data-name="Layer 2">
    <g id="Layer_1-2" data-name="Layer 1">
      <g>
        <path d="M0,51.3V0H11.8c8.6,0,13,5,13,15a20.1,20.1,0,0,1-1.4,7.8,11.2,11.2,0,0,1-5,5.1l8,23.4H18.6L11.7,29.4H7.3V51.3ZM7.3,6.9v16h4.2a8.7,8.7,0,0,0,3.1-.5,4,4,0,0,0,1.8-1.6,6.1,6.1,0,0,0,.8-2.5,17.8,17.8,0,0,0,.2-3.4,17.8,17.8,0,0,0-.2-3.4,5.4,5.4,0,0,0-.9-2.6c-.9-1.3-2.6-2-5.1-2Z" fill="#fff"/>
        <path d="M30.7,51.3V0H52.6V6.9H38V22H50.7v6.9H38v15H52.6v7.4Z" fill="#fff"/>
        <path d="M57,51.3V0h7.1L75.2,30.9h.1V0h7.4V51.3h-7L64.5,20.4h-.1V51.3Z" fill="#fff"/>
        <path d="M86,51.3,97.4,0h6.1L115,51.3h-7.4l-2.1-11.1h-10L93.3,51.3Zm18.1-18-3.6-18.5h-.1L96.8,33.3Z" fill="#fff"/>
        <path d="M118.6,51.3V0h21.9V6.9H125.9V22h12.7v6.9H125.9v15h14.6v7.4Z" fill="#fff"/>
        <path d="M0,115.3V64H7.1l9.4,27.1h.1L26,64h7.1v51.3H25.8V84.1h-.2l-7.2,22H14.7l-7.2-22H7.3v31.2Z" fill="#fff"/>
        <path d="M40,115.3V64H61.9v6.9H47.4V86H60v6.9H47.4v15H61.9v7.4Z" fill="#fff"/>
        <path d="M66.9,115.3V64h7.3v51.3Z" fill="#fff"/>
        <path d="M81.1,115.3V64h7L99.2,94.9h.2V64h7.3v51.3H99.8L88.6,84.4h-.2v30.9Z" fill="#fff"/>
        <path d="M113.3,115.3V64h21.9v6.9H120.7V86h12.6v6.9H120.7v15h14.5v7.4Z" fill="#fff"/>
        <path d="M163.7,78.8h-7.3V77.1a8.1,8.1,0,0,0-1.2-4.4,4.4,4.4,0,0,0-4-1.8,4.9,4.9,0,0,0-2.5.6,6.7,6.7,0,0,0-1.5,1.4,14.3,14.3,0,0,0-.8,2.2,17.9,17.9,0,0,0-.2,2.4c0,1,.1,1.9.1,2.6a6.4,6.4,0,0,0,.6,1.8,4.9,4.9,0,0,0,1.2,1.3,12,12,0,0,0,2.3,1.2l5.6,2.2a13.6,13.6,0,0,1,4,2.2,9.6,9.6,0,0,1,2.4,2.9,15.9,15.9,0,0,1,1,3.9,38.4,38.4,0,0,1,.3,5,29.3,29.3,0,0,1-.6,6.1,15.6,15.6,0,0,1-2.1,4.7,9.6,9.6,0,0,1-4,3.1,13.2,13.2,0,0,1-5.9,1.2,13.5,13.5,0,0,1-5-.9,12.6,12.6,0,0,1-4-2.6,11.6,11.6,0,0,1-2.6-3.9,10.6,10.6,0,0,1-1-4.8v-2.7h7.4v2.3a5.8,5.8,0,0,0,1.2,3.6c.7,1.1,2.1,1.7,4,1.7a6,6,0,0,0,2.9-.6,3.9,3.9,0,0,0,1.6-1.5,6.1,6.1,0,0,0,.7-2.4c0-1,.1-2,.1-3.2a29.2,29.2,0,0,0-.2-3.3,8.1,8.1,0,0,0-.5-2.1,5.8,5.8,0,0,0-1.4-1.3l-2.2-1.1-5.2-2.1c-3.2-1.3-5.3-3-6.4-5.2a17.3,17.3,0,0,1-1.6-8,17,17,0,0,1,.8-5.5,11.1,11.1,0,0,1,2.4-4.4,9.4,9.4,0,0,1,3.8-3,12.2,12.2,0,0,1,5.6-1.1,11.8,11.8,0,0,1,5,1,11.6,11.6,0,0,1,3.9,2.6,11.3,11.3,0,0,1,3.3,8Z" fill="#fff"/>
      </g>
    </g>
  </g>
</svg>
