<svg xmlns="http://www.w3.org/2000/svg" viewBox="0 0 129.7 129.5">
  <title>scroll_hand</title>
  <g id="Layer_2" data-name="Layer 2">
    <g id="Layer_1-2" data-name="Layer 1">
      <g id="scroll_to_view" class="rotate">
        <path d="M14.8,47.6c-.2.1-.3,0-.4-.1l-.9-2.1c-.1-.1,0-.2.1-.3a5.6,5.6,0,0,0,2.7-2.6c.6-1.3.4-2.3-.5-2.7s-1.4-.1-2.3,1.2l-.3.7c-1.5,2.3-3.4,3.2-5.5,2.2s-3-3.5-1.8-6.1a7.4,7.4,0,0,1,3.2-3.7h.3l1.1,1.9a.2.2,0,0,1,0,.3,5.3,5.3,0,0,0-2.3,2.4c-.5,1.1-.2,1.9.6,2.3s1.4,0,2.2-1.3l.4-.6C12.9,36.8,14.7,36,17,37s3.1,3.4,1.6,6.6A7.8,7.8,0,0,1,14.8,47.6Z" fill="#f45ea6"/>
        <path d="M18.3,30.1a8,8,0,0,1-2.5-2.7,4.7,4.7,0,0,1,.6-5.8c1.6-1.7,3.5-2.3,5.4-1.6.2,0,.2.1.2.3l-.7,2.2c-.1.2-.2.2-.3.2a2.2,2.2,0,0,0-2.6.6,2,2,0,0,0-.2,2.5,10.1,10.1,0,0,0,2,2.1,9.4,9.4,0,0,0,2.4,1.8,1.9,1.9,0,0,0,2.4-.6,2.1,2.1,0,0,0,.3-2.6.4.4,0,0,1,.1-.3l2.2-1c.1,0,.2,0,.2.1a4.8,4.8,0,0,1-.8,5.6,4.8,4.8,0,0,1-5.7,1.4A9.8,9.8,0,0,1,18.3,30.1Z" fill="#f45ea6"/>
        <path d="M40.3,19.9a.2.2,0,0,1-.3,0l-4.6-3-1.6.9c-.1.1-.1.1,0,.2l2.5,4.1a.2.2,0,0,1,0,.3l-2.2,1.3a.2.2,0,0,1-.3,0L26.9,12.4c-.1-.1,0-.2.1-.2l4.6-2.9c2.3-1.4,4.8-.9,6.1,1.2a3.9,3.9,0,0,1-.1,4.5l5.1,3.1q.3.1,0,.3ZM35.2,12a1.6,1.6,0,0,0-2.4-.4l-2.1,1.2c0,.1-.1.1,0,.2l1.6,2.7h.2l2-1.3A1.6,1.6,0,0,0,35.2,12Z" fill="#f45ea6"/>
        <path d="M46.9,13.4a10.6,10.6,0,0,1-1.3-3.5,9.5,9.5,0,0,1-.5-3.7c.1-2.3,1.7-3.8,4-4.4a4.8,4.8,0,0,1,5.6,2A12.9,12.9,0,0,1,56,7.3a9.9,9.9,0,0,1,.5,3.7,4.7,4.7,0,0,1-4,4.4C50.2,16,48.1,15.4,46.9,13.4Zm6.7-2.5a13.2,13.2,0,0,0-.5-2.8,17.6,17.6,0,0,0-.9-2.8,2.2,2.2,0,0,0-2.5-1,2.1,2.1,0,0,0-1.7,2,13.7,13.7,0,0,0,.5,2.9,8.6,8.6,0,0,0,.9,2.8,2.1,2.1,0,0,0,2.5.9A2.2,2.2,0,0,0,53.6,10.9Z" fill="#f45ea6"/>
        <path d="M63.7.2a.2.2,0,0,1,.2-.2h2.6l.2.2L66.2,11h.1l6,.3a.2.2,0,0,1,.2.2v2.2l-.2.2-8.9-.4-.2-.2Z" fill="#f45ea6"/>
        <path d="M81.6,2.4a.2.2,0,0,1,.2-.2l2.4.9c.2,0,.2.1.2.2L80.9,13.4v.2l5.7,1.9c.1,0,.2.1.1.3l-.7,2.1c0,.1-.1.1-.2.1l-8.4-2.9c-.2,0-.2-.1-.2-.2Z" fill="#f45ea6"/>
        <path d="M99.4,27.2a.2.2,0,0,1,0-.3l7.4-7.7V19l-2.5-2.4c-.1,0-.1-.2,0-.2l1.5-1.6a.2.2,0,0,1,.3,0l7.2,6.9a.2.2,0,0,1,0,.3l-1.5,1.6h-.3L109,21.2h-.1l-7.4,7.7a.2.2,0,0,1-.3,0Z" fill="#f45ea6"/>
        <path d="M109.5,33.8a12.8,12.8,0,0,1,3-2.2,11.1,11.1,0,0,1,3.5-1.5,4.9,4.9,0,0,1,5.3,2.7,4.9,4.9,0,0,1-.4,6,12.2,12.2,0,0,1-3.1,2.1,11.9,11.9,0,0,1-3.4,1.5,4.7,4.7,0,0,1-5.3-2.7A4.7,4.7,0,0,1,109.5,33.8Zm4.2,5.8a9.5,9.5,0,0,0,2.6-1.3,8.6,8.6,0,0,0,2.5-1.6,2.1,2.1,0,0,0,.2-2.6,2,2,0,0,0-2.3-1.1,9.1,9.1,0,0,0-2.7,1.2,9.1,9.1,0,0,0-2.4,1.7,2.1,2.1,0,0,0-.3,2.6A2.2,2.2,0,0,0,113.7,39.6Z" fill="#f45ea6"/>
        <path d="M115.7,60.6c0-.2,0-.3.2-.3l12.9-5.1c.1,0,.2,0,.2.2l.2,2.6a.2.2,0,0,1-.2.2l-8.8,3.3h0l9.1,2.2a.2.2,0,0,1,.2.2l.2,2.6c0,.1-.1.2-.3.2L116,63.1a.2.2,0,0,1-.2-.2Z" fill="#f45ea6"/>
        <path d="M128.5,74.7c.1,0,.2.1.1.2l-.4,2.5c0,.2-.1.2-.2.2l-13-2.3-.2-.3.5-2.5c0-.1.1-.2.2-.1Z" fill="#f45ea6"/>
        <path d="M125.6,86.4c.2.1.2.2.1.3l-3.4,8H122l-2-.9c-.1,0-.1-.1-.1-.2l2.4-5.4v-.2l-2.5-1h-.1l-2,4.5c0,.1-.1.2-.2.1l-2-.8a.4.4,0,0,1-.1-.3l2-4.5h-.1l-2.6-1.2c-.1,0-.1,0-.1.1l-2.4,5.4c0,.1-.1.1-.2.1l-2-.9c-.1,0-.2-.1-.1-.2l3.5-8c0-.1.1-.2.2-.1Z" fill="#f45ea6"/>
        <path d="M100.3,101.4c.1-.1.2-.1.4,0l7.8,4h0l-4.6-7.5a.6.6,0,0,1,.1-.4l1.3-1.4h.3l12.1,6.5c.1,0,.1.1,0,.2l-1.7,1.9h-.3l-7.6-4.4H108l4.7,7.5a.2.2,0,0,1,0,.3l-1.2,1.3h-.3l-7.9-4.1h0l4.9,7.2a.2.2,0,0,1,0,.3l-1.7,1.9a.2.2,0,0,1-.3,0l-7.3-11.6a.4.4,0,0,1,.1-.3Z" fill="#f45ea6"/>
        <path d="M89.2,124.7c0,.1,0,.2-.1.2l-2.3.7c-.2.1-.3,0-.4-.1L80.9,119h-.1l-1,8.4a.2.2,0,0,1-.2.2l-2.3.7h-.2l-3.8-12.7c0-.1,0-.2.1-.2l2.2-.7c.1,0,.2,0,.3.2l2.1,7.3h.1l.8-6.2c0-.2.1-.3.3-.4l1.3-.4a.6.6,0,0,1,.5.2l4,4.7h.1l-2.2-7.3a.4.4,0,0,1,.1-.3l2.2-.6h.3Z" fill="#f45ea6"/>
        <path d="M64.4,115.7a.2.2,0,0,1,.2.2l-.2,5.2,3.8,8.2c0,.1,0,.2-.2.2H65.4l-.3-.2-2.3-5.1h0L60.1,129c0,.1-.1.2-.3.2H57.3c-.1,0-.2-.1-.1-.2l4.3-7.8v-5.3c0-.1.1-.2.3-.2Z" fill="#f45ea6"/>
        <path d="M37.1,107.6c.2.1.2.2.2.3l-2.2,8.5h0l6.3-6.2h.3l1.8,1c.1,0,.1.1.1.3L40,124.8c0,.1-.1.1-.2,0l-2.2-1.2c-.2-.1-.2-.2-.1-.3l2.5-8.4h0l-6.3,6.2h-.3l-1.5-.9c-.1-.1-.2-.2-.1-.3l2.1-8.6h0L28,117.8c-.1.2-.2.2-.3.1l-2.2-1.3c-.1-.1-.1-.1,0-.2l9.6-9.7h.3Z" fill="#f45ea6"/>
        <path d="M26.7,103.4a10.1,10.1,0,0,1-2.6,2.7,9.8,9.8,0,0,1-3.1,2.1c-2.1.9-4.1.2-5.7-1.7a4.9,4.9,0,0,1-.7-5.9,15,15,0,0,1,2.6-2.7,12.7,12.7,0,0,1,3.1-2.1c2.2-.9,4.2-.1,5.7,1.7S28,101.4,26.7,103.4Zm-5.2-4.9a12.9,12.9,0,0,0-2.3,1.7c-1.4,1.2-1.9,1.6-2.1,2.1a2,2,0,0,0,.2,2.6,2,2,0,0,0,2.5.6,8.7,8.7,0,0,0,2.4-1.7,10,10,0,0,0,2.1-2,2.3,2.3,0,0,0-2.8-3.3Z" fill="#f45ea6"/>
        <path d="M16.7,81.9c.1.2.1.3,0,.4L13,86.4l.7,1.6h.1l4.5-1.9h.3l1,2.4a.4.4,0,0,1-.1.3L7.3,94c-.1.1-.2,0-.3-.1l-2.1-5C3.9,86.3,4.8,84,7,83a4.3,4.3,0,0,1,4.5.8l3.9-4.5h.3ZM8.2,85.7a1.7,1.7,0,0,0-.9,2.4l1,2.2c0,.1,0,.1.1.1l2.9-1.2V89l-1-2.2A1.6,1.6,0,0,0,8.2,85.7Z" fill="#f45ea6"/>
        <path d="M1.1,75.2c-.1.1-.2,0-.2-.1L.7,72.5c0-.1,0-.2.1-.2l5.9-.5-6.3-4-.2-.3L0,64.6c0-.1.1-.2.3-.1l5.4,3.7L13.3,63c.1-.1.2,0,.2.1l.3,3c0,.1-.1.2-.2.3L8.2,69.9l2.3,1.6,3.5-.3a.2.2,0,0,1,.2.2l.2,2.5c0,.2,0,.2-.2.3Z" fill="#f45ea6"/>
      </g>
      <path d="M80.5,61.8a13.8,13.8,0,0,0-3.6-9.1h0V47.4a1.3,1.3,0,0,0-1.2-1.2H58.1A1.2,1.2,0,0,0,57,47.4V50l-.7.7a47.7,47.7,0,0,0-4.4,4.5c-1.9,2.3-3.7,4.8-3.7,7.6v4.1a5,5,0,0,0,2.2,3.9A8.5,8.5,0,0,0,53.1,72h.3V87.6a4.3,4.3,0,0,0,8.5,0V78.5l.5.2a3.6,3.6,0,0,0,1.4.2,4.4,4.4,0,0,0,4.1-3.1v-.4h.4a4.2,4.2,0,0,0,1.6.4,4.3,4.3,0,0,0,4-3.2l.2-.4h.4a2.9,2.9,0,0,0,1.6.4,4.4,4.4,0,0,0,4.3-4.3Zm-2.4,6.7a1.9,1.9,0,1,1-3.8,0,1.2,1.2,0,1,0-2.4,0v3.1a1.9,1.9,0,0,1-3.8,0,1.2,1.2,0,0,0-1.2-1.2,1.2,1.2,0,0,0-1.2,1.2v3.1a1.9,1.9,0,1,1-3.8,0,1.2,1.2,0,0,0-1.2-1.2,1.1,1.1,0,0,0-1.1,1.2V87.6a1.9,1.9,0,0,1-2,1.9,1.8,1.8,0,0,1-1.9-1.9V63.9a1.6,1.6,0,0,0-.3-.9,1.4,1.4,0,0,0-1.7,0,1.6,1.6,0,0,0-.3.8v5.9l-.6-.2a2.1,2.1,0,0,1-1-.6,2.4,2.4,0,0,1-1.2-2V62.8c0-1.4,1.1-3.7,3.1-6.1A60.6,60.6,0,0,1,58,52.3a9.4,9.4,0,0,1,1-1,1.2,1.2,0,0,0,.3-.9V48.5H74.5V53a1.2,1.2,0,0,0,.4.9,11,11,0,0,1,3.2,7.9Z" fill="#f45ea6"/>
    </g>
  </g>
</svg>
